<svg width="77" height="76" viewBox="0 0 77 76" fill="none" xmlns="http://www.w3.org/2000/svg">
<path d="M75.3216 41.3324C76.0844 40.3894 76.5005 39.2132 76.5005 38.0003C76.5005 36.7875 76.0844 35.6113 75.3216 34.6683L73.6191 32.5432C73.2927 32.1353 73.0694 31.6549 72.9678 31.1425C72.8662 30.6302 72.8895 30.1009 73.0355 29.5994L73.7954 26.9928C74.1291 25.8272 74.058 24.583 73.5938 23.463C73.1296 22.343 72.2996 21.4134 71.2392 20.8256L68.8606 19.5196C68.4024 19.2687 68.0113 18.9111 67.7205 18.4772C67.4296 18.0432 67.2475 17.5456 67.1895 17.0264L66.8927 14.3225C66.7657 13.1157 66.2283 11.989 65.3702 11.131C64.5122 10.2729 63.3855 9.73548 62.1787 9.60848L59.4748 9.31167C58.9556 9.25392 58.458 9.07196 58.024 8.78119C57.59 8.49042 57.2325 8.0994 56.9816 7.64121L55.6756 5.26196C55.0969 4.1929 54.1681 3.3554 53.0451 2.88998C51.9221 2.42455 50.6731 2.35953 49.5078 2.70582L46.9018 3.46506C46.4001 3.61092 45.8706 3.63399 45.3581 3.53233C44.8455 3.43067 44.365 3.20726 43.9569 2.88094L41.8317 1.17842C40.8886 0.415948 39.7125 0 38.4997 0C37.2869 0 36.1108 0.415948 35.1677 1.17842L33.0425 2.88094C32.6344 3.20683 32.154 3.42994 31.6417 3.53149C31.1294 3.63304 30.6002 3.61005 30.0987 3.46447L27.4921 2.70463C26.3265 2.37062 25.0822 2.44152 23.9621 2.90576C22.8421 3.37 21.9124 4.20016 21.3249 5.26078L20.019 7.63943C19.768 8.09764 19.4105 8.4887 18.9765 8.77956C18.5425 9.07042 18.0449 9.25252 17.5257 9.31048L14.8218 9.60729C13.615 9.73429 12.4884 10.2718 11.6303 11.1298C10.7723 11.9878 10.2348 13.1145 10.1078 14.3213L9.81099 17.0252C9.75324 17.5444 9.57128 18.042 9.28051 18.476C8.98975 18.91 8.59873 19.2676 8.14053 19.5184L5.76129 20.8244C4.69246 21.4034 3.85516 22.3322 3.38977 23.4551C2.92438 24.5781 2.8592 25.8269 3.20514 26.9922L3.96557 29.5976C4.11138 30.0993 4.13442 30.6288 4.03276 31.1413C3.9311 31.6539 3.70772 32.1344 3.38145 32.5426L1.67893 34.6677C0.916147 35.6107 0.5 36.7869 0.5 37.9997C0.5 39.2126 0.916147 40.3888 1.67893 41.3318L3.38145 43.4569C3.70779 43.8648 3.93117 44.3452 4.03274 44.8576C4.1343 45.3699 4.11106 45.8992 3.96498 46.4007L3.20514 49.0073C2.87121 50.1728 2.94201 51.4171 3.40601 52.5372C3.87 53.6573 4.69981 54.5871 5.7601 55.1751L8.13875 56.4811C8.59696 56.732 8.98802 57.0895 9.27888 57.5235C9.56974 57.9575 9.75184 58.4551 9.8098 58.9743L10.1066 61.6782C10.2336 62.885 10.7711 64.0116 11.6291 64.8697C12.4872 65.7277 13.6138 66.2652 14.8206 66.3922L17.5245 66.689C18.0437 66.7468 18.5414 66.9287 18.9753 67.2195C19.4093 67.5103 19.7669 67.9013 20.0178 68.3595L21.3237 70.7387C21.9025 71.8078 22.8312 72.6453 23.9543 73.1107C25.0773 73.5761 26.3262 73.6412 27.4915 73.2949L30.0969 72.5344C30.5987 72.3891 31.1281 72.3663 31.6405 72.4679C32.153 72.5695 32.6335 72.7927 33.0419 73.1186L35.1671 74.8211C36.11 75.5839 37.2862 76 38.4991 76C39.7119 76 40.8881 75.5839 41.8311 74.8211L43.9563 73.1186C44.3642 72.7923 44.8446 72.569 45.3569 72.4675C45.8693 72.3659 46.3985 72.3891 46.9 72.535L49.5066 73.2949C50.6719 73.6409 51.9206 73.5757 53.0435 73.1103C54.1663 72.6449 55.095 71.8076 55.6738 70.7387L56.9798 68.3601C57.2307 67.9019 57.5883 67.5108 58.0222 67.2199C58.4562 66.9291 58.9538 66.747 59.473 66.689L62.177 66.3922C63.3838 66.2652 64.5104 65.7277 65.3684 64.8697C66.2265 64.0116 66.7639 62.885 66.8909 61.6782L67.1878 58.9743C67.2455 58.4551 67.4275 57.9575 67.7182 57.5235C68.009 57.0895 68.4 56.7319 68.8582 56.4811L71.2375 55.1751C72.3063 54.5961 73.1436 53.6673 73.609 52.5444C74.0744 51.4214 74.1395 50.1726 73.7936 49.0073L73.0332 46.4019C72.8874 45.9001 72.8643 45.3707 72.966 44.8582C73.0676 44.3456 73.291 43.8651 73.6173 43.4569L75.3216 41.3324ZM71.9973 42.1593C71.4626 42.8279 71.0965 43.6152 70.93 44.455C70.7635 45.2947 70.8013 46.1622 71.0404 46.9842L71.8014 49.5897C72.0124 50.3007 71.9725 51.0626 71.6884 51.7477C71.4044 52.4328 70.8935 52.9995 70.2414 53.3526L67.8615 54.6586C67.1102 55.0704 66.4692 55.6572 65.9929 56.3692C65.5165 57.0813 65.2188 57.8977 65.1249 58.7493L64.8281 61.4532C64.7502 62.1895 64.422 62.8768 63.8985 63.4003C63.3749 63.9239 62.6877 64.252 61.9514 64.3299L59.2468 64.6268C58.3954 64.721 57.5791 65.0189 56.8672 65.4954C56.1552 65.9718 55.5686 66.6128 55.1568 67.364L53.8508 69.7432C53.4974 70.395 52.9308 70.9056 52.2459 71.1896C51.561 71.4736 50.7993 71.5137 50.0884 71.3033L47.4824 70.5428C46.6605 70.3033 45.7931 70.2652 44.9534 70.4316C44.1137 70.5981 43.3264 70.9642 42.658 71.4991L40.5328 73.2017C39.9575 73.6677 39.2395 73.922 38.4991 73.922C37.7586 73.922 37.0407 73.6677 36.4653 73.2017L34.3401 71.4991C33.6716 70.9644 32.8842 70.5983 32.0445 70.4317C31.2047 70.2652 30.3372 70.3031 29.5152 70.5422L26.9103 71.3027C26.1993 71.5128 25.4377 71.4725 24.7528 71.1886C24.0678 70.9046 23.5011 70.3942 23.1474 69.7426L21.8414 67.3628C21.4296 66.6115 20.8428 65.9705 20.1308 65.4941C19.4187 65.0178 18.6023 64.72 17.7507 64.6262L15.0468 64.3294C14.3105 64.2514 13.6232 63.9233 13.0997 63.3997C12.5761 62.8762 12.248 62.1889 12.1701 61.4527L11.8732 58.7481C11.779 57.8966 11.4811 57.0804 11.0046 56.3685C10.5282 55.6565 9.88724 55.0698 9.13604 54.658L6.75679 53.3521C6.10989 52.9935 5.60354 52.4263 5.32034 51.7431C5.03714 51.0598 4.99378 50.3007 5.19734 49.5897L5.95778 46.9837C6.19707 46.1618 6.2351 45.2944 6.06865 44.4547C5.9022 43.615 5.53617 42.8277 5.00145 42.1593L3.29775 40.0341C2.83221 39.4585 2.57824 38.7406 2.57824 38.0003C2.57824 37.2601 2.83221 36.5422 3.29775 35.9666L5.00026 33.8414C5.53495 33.1728 5.90101 32.3854 6.06756 31.5457C6.2341 30.706 6.19624 29.8385 5.95718 29.0164L5.19734 26.411C4.98639 25.7 5.02627 24.9381 5.3103 24.253C5.59433 23.5679 6.10524 23.0012 6.75739 22.648L9.13723 21.3421C9.88852 20.9303 10.5295 20.3435 11.0059 19.6314C11.4822 18.9194 11.78 18.103 11.8738 17.2514L12.1706 14.5474C12.2491 13.8108 12.578 13.1235 13.1024 12.6002C13.6267 12.077 14.3147 11.7495 15.0515 11.6725L17.7561 11.3757C18.6075 11.2815 19.4238 10.9836 20.1357 10.5071C20.8477 10.0306 21.4343 9.3897 21.8461 8.6385L23.1521 6.25925C23.5108 5.61341 24.0772 5.10775 24.7594 4.82434C25.4416 4.54093 26.1996 4.49642 26.9103 4.69802L29.5163 5.45845C30.3382 5.698 31.2057 5.73615 32.0454 5.5697C32.8851 5.40324 33.6724 5.03707 34.3407 4.50212L36.4659 2.79842C37.0415 2.33279 37.7594 2.07875 38.4997 2.07875C39.24 2.07875 39.9579 2.33279 40.5334 2.79842L42.6586 4.50094C43.3274 5.03532 44.1147 5.40119 44.9544 5.56772C45.7941 5.73425 46.6615 5.69657 47.4836 5.45786L50.089 4.69802C50.8 4.48775 51.5617 4.52796 52.2466 4.81192C52.9316 5.09588 53.4983 5.60639 53.852 6.25807L55.158 8.63791C55.5697 9.3892 56.1565 10.0302 56.8686 10.5066C57.5806 10.9829 58.397 11.2806 59.2486 11.3745L61.9526 11.6713C62.6889 11.7493 63.3761 12.0774 63.8997 12.6009C64.4232 13.1245 64.7513 13.8117 64.8293 14.548L65.1261 17.2526C65.2203 18.104 65.5182 18.9203 65.9947 19.6322C66.4711 20.3442 67.1121 20.9309 67.8633 21.3427L70.2425 22.6486C70.8895 23.0072 71.3959 23.5743 71.6792 24.2576C71.9625 24.9408 72.006 25.6999 71.8026 26.411L71.0422 29.017C70.8029 29.8389 70.7648 30.7063 70.9313 31.546C71.0977 32.3857 71.4638 33.173 71.9985 33.8414L73.701 35.9666C74.1665 36.5422 74.4205 37.2601 74.4205 38.0003C74.4205 38.7406 74.1665 39.4585 73.701 40.0341L71.9973 42.1593Z" fill="#333333"/>
<path d="M56.6363 25.3428C56.6361 25.0672 56.5266 24.8029 56.3318 24.6079L51.8909 20.1676C51.7945 20.071 51.68 19.9945 51.5539 19.9422C51.4279 19.8899 51.2927 19.863 51.1563 19.863C51.0198 19.863 50.8847 19.8899 50.7587 19.9422C50.6326 19.9945 50.5181 20.071 50.4217 20.1676L20.6669 49.923C20.5703 50.0194 20.4937 50.1339 20.4415 50.26C20.3892 50.3861 20.3623 50.5212 20.3623 50.6576C20.3623 50.7941 20.3892 50.9292 20.4415 51.0552C20.4937 51.1813 20.5703 51.2958 20.6669 51.3922L25.1078 55.8325C25.2042 55.9291 25.3187 56.0057 25.4448 56.0579C25.5708 56.1102 25.7059 56.1371 25.8424 56.1371C25.9788 56.1371 26.1139 56.1102 26.24 56.0579C26.366 56.0057 26.4806 55.9291 26.577 55.8325L56.3318 26.0771C56.5267 25.8824 56.6362 25.6183 56.6363 25.3428ZM25.8427 53.629L22.8704 50.6573L51.156 22.3711L54.1283 25.3428L25.8427 53.629Z" fill="#333333"/>
<path d="M25.9143 32.1271C27.2408 32.1271 28.5375 31.7338 29.6406 30.9969C30.7436 30.26 31.6034 29.2126 32.1112 27.9871C32.619 26.7616 32.7521 25.4131 32.4936 24.112C32.2351 22.8109 31.5967 21.6157 30.659 20.6774C29.7213 19.7391 28.5264 19.0999 27.2255 18.8406C25.9245 18.5813 24.5759 18.7135 23.3501 19.2206C22.1243 19.7277 21.0764 20.5868 20.3388 21.6894C19.6012 22.7919 19.2071 24.0885 19.2063 25.415C19.2077 27.194 19.9148 28.8998 21.1723 30.1581C22.4299 31.4165 24.1352 32.1246 25.9143 32.1271ZM25.9143 20.7847C26.83 20.7847 27.7252 21.0563 28.4867 21.5651C29.2481 22.0738 29.8416 22.797 30.1921 23.6431C30.5425 24.4891 30.6342 25.4201 30.4556 26.3183C30.2769 27.2165 29.8359 28.0415 29.1883 28.6891C28.5408 29.3366 27.7158 29.7776 26.8176 29.9563C25.9194 30.1349 24.9884 30.0432 24.1423 29.6928C23.2963 29.3423 22.5731 28.7489 22.0643 27.9874C21.5555 27.226 21.284 26.3308 21.284 25.415C21.286 24.1876 21.7745 23.011 22.6424 22.1431C23.5103 21.2752 24.6869 20.7868 25.9143 20.7847Z" fill="#333333"/>
<path d="M51.0842 43.8728C49.7576 43.8728 48.4609 44.2661 47.3579 45.003C46.2548 45.7399 45.3951 46.7873 44.8872 48.0128C44.3794 49.2383 44.2463 50.5868 44.5048 51.8879C44.7633 53.189 45.4018 54.3842 46.3395 55.3225C47.2772 56.2608 48.472 56.9 49.773 57.1593C51.0739 57.4186 52.4225 57.2864 53.6483 56.7793C54.8741 56.2722 55.922 55.4131 56.6596 54.3105C57.3972 53.208 57.7913 51.9114 57.7921 50.5849C57.7907 48.8059 57.0837 47.1001 55.8261 45.8418C54.5685 44.5834 52.8632 43.8753 51.0842 43.8728ZM51.0842 55.2152C50.1684 55.2152 49.2732 54.9436 48.5117 54.4348C47.7503 53.9261 47.1568 53.2029 46.8064 52.3568C46.4559 51.5108 46.3642 50.5798 46.5429 49.6816C46.7215 48.7834 47.1625 47.9584 47.8101 47.3108C48.4576 46.6633 49.2827 46.2223 50.1809 46.0436C51.079 45.865 52.01 45.9566 52.8561 46.3071C53.7022 46.6576 54.4253 47.251 54.9341 48.0125C55.4429 48.7739 55.7144 49.6691 55.7144 50.5849C55.7124 51.8123 55.2239 52.9889 54.356 53.8568C53.4881 54.7247 52.3116 55.2131 51.0842 55.2152Z" fill="#333333"/>
</svg>
