<svg width="92" height="58" viewBox="0 0 92 58" fill="none" xmlns="http://www.w3.org/2000/svg">
<path d="M76.7351 18.3506H65.5678C65.4045 18.3505 65.2428 18.3826 65.092 18.445C64.9411 18.5075 64.804 18.599 64.6886 18.7145C64.5731 18.8299 64.4816 18.967 64.4191 19.1179C64.3567 19.2687 64.3246 19.4304 64.3247 19.5937V29.4795C64.3246 29.6428 64.3567 29.8045 64.4191 29.9554C64.4816 30.1062 64.5731 30.2433 64.6886 30.3588C64.804 30.4742 64.9411 30.5658 65.092 30.6282C65.2428 30.6906 65.4045 30.7227 65.5678 30.7226H82.7027C82.923 30.7226 83.1393 30.6641 83.3295 30.5531C83.5197 30.4421 83.677 30.2826 83.7854 30.0908C83.8938 29.8991 83.9493 29.682 83.9463 29.4618C83.9433 29.2416 83.8818 29.0261 83.7682 28.8374L77.8014 18.9515C77.6905 18.768 77.534 18.6162 77.3472 18.5109C77.1604 18.4056 76.9496 18.3504 76.7351 18.3506ZM66.8081 28.2364V20.8368H76.0333L80.4985 28.2364H66.8081Z" fill="#333333"/>
<path d="M74.1327 41.4844C73.0614 41.4844 72.0142 41.802 71.1235 42.3972C70.2328 42.9924 69.5386 43.8383 69.1286 44.828C68.7187 45.8177 68.6114 46.9068 68.8204 47.9574C69.0294 49.0081 69.5452 49.9732 70.3027 50.7307C71.0602 51.4882 72.0253 52.0041 73.076 52.213C74.1267 52.422 75.2157 52.3148 76.2054 51.9048C77.1952 51.4949 78.0411 50.8006 78.6362 49.9099C79.2314 49.0192 79.5491 47.972 79.5491 46.9007C79.5474 45.4648 78.9762 44.0881 77.9608 43.0727C76.9454 42.0573 75.5687 41.4861 74.1327 41.4844ZM74.1327 49.8309C73.5531 49.8309 72.9866 49.6591 72.5048 49.3371C72.0229 49.0151 71.6473 48.5575 71.4256 48.0221C71.2038 47.4867 71.1458 46.8975 71.2588 46.3291C71.3719 45.7607 71.6509 45.2386 72.0607 44.8288C72.4705 44.419 72.9926 44.1399 73.561 44.0269C74.1294 43.9138 74.7186 43.9719 75.254 44.1936C75.7894 44.4154 76.2471 44.791 76.569 45.2728C76.891 45.7547 77.0628 46.3212 77.0628 46.9007C77.0619 47.6776 76.7529 48.4223 76.2036 48.9717C75.6543 49.521 74.9095 49.83 74.1327 49.8309Z" fill="#333333"/>
<path d="M20.816 41.4844C19.7447 41.4842 18.6975 41.8018 17.8066 42.3969C16.9158 42.9919 16.2215 43.8378 15.8114 44.8275C15.4014 45.8172 15.294 46.9063 15.5029 47.957C15.7118 49.0077 16.2276 49.9729 16.9851 50.7305C17.7426 51.488 18.7077 52.0039 19.7584 52.213C20.8091 52.422 21.8981 52.3148 22.8879 51.9049C23.8776 51.495 24.7236 50.8007 25.3188 49.91C25.914 49.0193 26.2317 47.972 26.2317 46.9007C26.23 45.4649 25.6589 44.0883 24.6436 43.0729C23.6284 42.0575 22.2519 41.4863 20.816 41.4844ZM20.816 49.8309C20.2364 49.8311 19.6699 49.6593 19.1879 49.3374C18.7059 49.0156 18.3303 48.558 18.1084 48.0226C17.8865 47.4872 17.8284 46.898 17.9413 46.3295C18.0543 45.7611 18.3333 45.2389 18.7431 44.8291C19.1529 44.4192 19.675 44.1401 20.2434 44.0269C20.8118 43.9138 21.401 43.9718 21.9365 44.1936C22.4719 44.4153 22.9296 44.7909 23.2516 45.2728C23.5736 45.7546 23.7455 46.3212 23.7455 46.9007C23.7447 47.6775 23.4359 48.4223 22.8867 48.9716C22.3375 49.5209 21.5928 49.83 20.816 49.8309Z" fill="#333333"/>
<path d="M90.9606 29.7634L81.008 13.2685C80.8973 13.085 80.741 12.9332 80.5543 12.8279C80.3676 12.7226 80.1568 12.6674 79.9425 12.6676H61.1255V1.2431C61.1255 0.913903 60.9949 0.598145 60.7624 0.365099C60.5299 0.132054 60.2144 0.000752659 59.8852 2.02968e-07H1.46012C1.29681 -9.31149e-05 1.13509 0.0319928 0.984188 0.0944227C0.833286 0.156853 0.696164 0.248404 0.580656 0.363846C0.465148 0.479288 0.373518 0.616358 0.311002 0.767224C0.248486 0.918091 0.216309 1.0798 0.216309 1.2431L0.216309 46.9005C0.216309 47.2301 0.347278 47.5463 0.580405 47.7795C0.813532 48.0126 1.12972 48.1436 1.45941 48.1436H9.79032C10.0947 50.8546 11.3872 53.3584 13.421 55.1766C15.4548 56.9949 18.0872 58 20.8152 58C23.5433 58 26.1757 56.9949 28.2094 55.1766C30.2432 53.3584 31.5358 50.8546 31.8401 48.1436H63.108C63.4124 50.8546 64.7049 53.3584 66.7387 55.1766C68.7725 56.9949 71.4049 58 74.1329 58C76.861 58 79.4934 56.9949 81.5271 55.1766C83.5609 53.3584 84.8535 50.8546 85.1578 48.1436H89.8965C90.0598 48.1437 90.2216 48.1116 90.3725 48.0491C90.5234 47.9867 90.6605 47.8952 90.776 47.7797C90.8915 47.6643 90.9831 47.5272 91.0456 47.3763C91.1082 47.2255 91.1403 47.0638 91.1403 46.9005V30.4056C91.14 30.1791 91.0779 29.9571 90.9606 29.7634ZM42.0371 2.4862V20.9885L31.2818 14.925C31.0955 14.8199 30.8852 14.7647 30.6712 14.7647C30.4573 14.7647 30.247 14.8199 30.0607 14.925L19.3061 20.9885V2.4862H42.0371ZM2.70322 2.4862H16.8199V23.1167C17.023 24.1865 17.6408 24.5474 18.6732 24.1993L30.6716 17.4347L42.6693 24.1993C42.8592 24.3006 43.0718 24.3516 43.287 24.3475C43.5022 24.3433 43.7127 24.2842 43.8986 24.1757C44.0844 24.0672 44.2394 23.9129 44.3488 23.7275C44.4581 23.5421 44.5182 23.3319 44.5233 23.1167V2.4862H58.6393V45.6574H31.8451C31.5114 42.9578 30.2097 40.4709 28.1814 38.6584C26.1532 36.8458 23.5362 35.8307 20.8163 35.8013C18.0959 35.8302 15.4785 36.8451 13.4498 38.6577C11.4211 40.4703 10.1191 42.9574 9.78535 45.6574H2.70251L2.70322 2.4862ZM20.8163 55.5134C19.1128 55.5135 17.4475 55.0085 16.031 54.0622C14.6145 53.1159 13.5105 51.7708 12.8585 50.197C12.2065 48.6232 12.0358 46.8914 12.3681 45.2206C12.7003 43.5498 13.5206 42.0151 14.7251 40.8105C15.9296 39.6058 17.4643 38.7855 19.135 38.4531C20.8058 38.1207 22.5376 38.2912 24.1114 38.9431C25.6853 39.595 27.0305 40.6989 27.9769 42.1153C28.9233 43.5317 29.4285 45.197 29.4285 46.9005C29.4261 49.1839 28.5179 51.3731 26.9034 52.9878C25.2888 54.6024 23.0997 55.5107 20.8163 55.5134ZM74.1333 55.5134C72.4298 55.5135 70.7645 55.0085 69.348 54.0622C67.9315 53.1159 66.8275 51.7708 66.1755 50.197C65.5235 48.6232 65.3528 46.8914 65.6851 45.2206C66.0173 43.5498 66.8376 42.0151 68.0421 40.8105C69.2466 39.6058 70.7812 38.7855 72.452 38.4531C74.1228 38.1207 75.8546 38.2912 77.4284 38.9431C79.0023 39.595 80.3475 40.6989 81.2939 42.1153C82.2403 43.5317 82.7455 45.197 82.7455 46.9005C82.7429 49.1839 81.8346 51.3731 80.2199 52.9878C78.6053 54.6025 76.416 55.5107 74.1326 55.5134H74.1333ZM88.6541 45.6574H85.1635C84.8583 42.9455 83.5649 40.4411 81.5302 38.6226C79.4955 36.804 76.8622 35.7987 74.1333 35.7987C71.4043 35.7987 68.771 36.804 66.7363 38.6226C64.7017 40.4411 63.4082 42.9455 63.1031 45.6574H61.1255V15.1538H79.2392L88.6541 30.7522V45.6574Z" fill="#333333"/>
<path d="M37.5053 41.0345H52.7734C53.1031 41.0345 53.4193 40.9035 53.6524 40.6704C53.8856 40.4372 54.0165 40.1211 54.0165 39.7914V33.9133C54.0165 33.5836 53.8856 33.2674 53.6524 33.0343C53.4193 32.8011 53.1031 32.6702 52.7734 32.6702H37.5053C37.342 32.6701 37.1803 32.7022 37.0295 32.7646C36.8786 32.827 36.7415 32.9186 36.6261 33.0341C36.5106 33.1495 36.4191 33.2866 36.3566 33.4374C36.2942 33.5883 36.2621 33.75 36.2622 33.9133V39.7914C36.2621 39.9546 36.2942 40.1163 36.3566 40.2672C36.4191 40.4181 36.5106 40.5551 36.6261 40.6706C36.7415 40.786 36.8786 40.8776 37.0295 40.94C37.1803 41.0025 37.342 41.0346 37.5053 41.0345ZM38.7484 35.1564H51.5303V38.5483H38.7484V35.1564Z" fill="#333333"/>
</svg>
