<svg width="76" height="76" viewBox="0 0 76 76" fill="none" xmlns="http://www.w3.org/2000/svg">
<path d="M52.9879 23.3501C52.7125 23.3502 52.4483 23.4598 52.2536 23.6546L34.1611 41.7471L23.749 31.3343C23.5505 31.1466 23.2878 31.042 23.0146 31.042C22.7415 31.042 22.4788 31.1466 22.2803 31.3343L18.0828 35.5325C17.8882 35.7273 17.7788 35.9914 17.7788 36.2668C17.7788 36.5422 17.8882 36.8063 18.0828 37.0011L33.4286 52.3457C33.525 52.4422 33.6394 52.5188 33.7654 52.571C33.8914 52.6233 34.0265 52.6502 34.1629 52.6502C34.2993 52.6502 34.4344 52.6233 34.5604 52.571C34.6864 52.5188 34.8008 52.4422 34.8972 52.3457L57.9198 29.3214C58.1145 29.1265 58.2238 28.8622 58.2238 28.5868C58.2238 28.3113 58.1145 28.047 57.9198 27.8521L53.7222 23.6546C53.5275 23.4598 53.2634 23.3502 52.9879 23.3501ZM34.1611 50.1421L20.2864 36.2668L23.017 33.5361L33.4286 43.95C33.525 44.0466 33.6394 44.1232 33.7654 44.1754C33.8914 44.2277 34.0265 44.2546 34.1629 44.2546C34.2993 44.2546 34.4344 44.2277 34.5604 44.1754C34.6864 44.1232 34.8008 44.0466 34.8972 43.95L52.9879 25.8582L55.7186 28.5888L34.1611 50.1421Z" fill="#333333"/>
<path d="M37.9998 9.70337C32.4032 9.70337 26.9323 11.363 22.2789 14.4723C17.6255 17.5816 13.9986 22.0009 11.8569 27.1715C9.71514 32.3421 9.15477 38.0316 10.2466 43.5207C11.3385 49.0098 14.0335 54.0518 17.9909 58.0092C21.9482 61.9666 26.9903 64.6616 32.4793 65.7534C37.9684 66.8453 43.6579 66.2849 48.8285 64.1432C53.9991 62.0014 58.4185 58.3746 61.5278 53.7212C64.6371 49.0678 66.2967 43.5968 66.2967 38.0002C66.2882 30.4981 63.3042 23.3056 57.9993 18.0007C52.6945 12.6958 45.502 9.71185 37.9998 9.70337ZM37.9998 64.2194C32.8141 64.2194 27.7449 62.6817 23.4332 59.8007C19.1214 56.9197 15.7609 52.8248 13.7764 48.0339C11.7919 43.243 11.2727 37.9712 12.2844 32.8851C13.296 27.7991 15.7932 23.1273 19.46 19.4605C23.1268 15.7937 27.7986 13.2965 32.8847 12.2848C37.9707 11.2732 43.2425 11.7924 48.0334 13.7769C52.8244 15.7613 56.9192 19.1219 59.8002 23.4336C62.6812 27.7454 64.219 32.8146 64.219 38.0002C64.2111 44.9516 61.4462 51.616 56.5309 56.5313C51.6155 61.4467 44.9511 64.2116 37.9998 64.2194Z" fill="#333333"/>
<path d="M74.8216 41.3324C75.5844 40.3894 76.0005 39.2132 76.0005 38.0003C76.0005 36.7875 75.5844 35.6113 74.8216 34.6683L73.1191 32.5432C72.7927 32.1353 72.5694 31.6549 72.4678 31.1425C72.3662 30.6302 72.3895 30.1009 72.5355 29.5994L73.2954 26.9928C73.6291 25.8272 73.558 24.583 73.0938 23.463C72.6296 22.343 71.7996 21.4134 70.7392 20.8256L68.3606 19.5196C67.9024 19.2687 67.5113 18.9111 67.2205 18.4772C66.9296 18.0432 66.7475 17.5456 66.6895 17.0264L66.3927 14.3225C66.2657 13.1157 65.7283 11.989 64.8702 11.131C64.0122 10.2729 62.8855 9.73548 61.6787 9.60848L58.9748 9.31167C58.4556 9.25392 57.958 9.07196 57.524 8.78119C57.09 8.49042 56.7325 8.0994 56.4816 7.64121L55.1756 5.26196C54.5969 4.1929 53.6681 3.3554 52.5451 2.88998C51.4221 2.42455 50.1731 2.35953 49.0078 2.70582L46.4018 3.46506C45.9001 3.61087 45.3706 3.63391 44.8581 3.53225C44.3456 3.43059 43.865 3.20721 43.4569 2.88094L41.3317 1.17842C40.3886 0.415948 39.2125 0 37.9997 0C36.7869 0 35.6108 0.415948 34.6677 1.17842L32.5425 2.88094C32.1342 3.20653 31.6538 3.42944 31.1416 3.53098C30.6294 3.63251 30.1003 3.6097 29.5987 3.46447L26.9921 2.70463C25.8265 2.37073 24.5822 2.44168 23.4622 2.90591C22.3422 3.37014 21.4125 4.20024 20.8249 5.26078L19.519 7.63943C19.268 8.09764 18.9105 8.4887 18.4765 8.77956C18.0425 9.07042 17.5449 9.25252 17.0257 9.31048L14.3218 9.60729C13.115 9.73429 11.9884 10.2718 11.1303 11.1298C10.2723 11.9878 9.73481 13.1145 9.6078 14.3213L9.31099 17.0252C9.25324 17.5444 9.07128 18.042 8.78051 18.476C8.48975 18.91 8.09873 19.2676 7.64053 19.5184L5.26129 20.8244C4.19246 21.4034 3.35516 22.3322 2.88977 23.4551C2.42438 24.5781 2.3592 25.8269 2.70514 26.9922L3.46557 29.5976C3.61138 30.0993 3.63442 30.6288 3.53276 31.1413C3.4311 31.6539 3.20772 32.1344 2.88145 32.5426L1.17893 34.6677C0.416147 35.6107 0 36.7869 0 37.9997C0 39.2126 0.416147 40.3888 1.17893 41.3318L2.88145 43.4569C3.20779 43.8648 3.43117 44.3452 3.53274 44.8576C3.6343 45.3699 3.61106 45.8992 3.46498 46.4007L2.70514 49.0073C2.37121 50.1728 2.44201 51.4171 2.90601 52.5372C3.37 53.6573 4.19981 54.5871 5.2601 55.1751L7.63875 56.4811C8.09696 56.732 8.48802 57.0895 8.77888 57.5235C9.06974 57.9575 9.25184 58.4551 9.3098 58.9743L9.60662 61.6782C9.73362 62.885 10.2711 64.0116 11.1291 64.8697C11.9872 65.7277 13.1138 66.2652 14.3206 66.3922L17.0245 66.689C17.5437 66.7468 18.0414 66.9287 18.4753 67.2195C18.9093 67.5103 19.2669 67.9013 19.5178 68.3595L20.8237 70.7387C21.4025 71.8078 22.3312 72.6453 23.4543 73.1107C24.5773 73.5761 25.8262 73.6412 26.9915 73.2949L29.5969 72.5344C30.0987 72.3891 30.6281 72.3663 31.1405 72.4679C31.653 72.5695 32.1335 72.7927 32.5419 73.1186L34.6671 74.8211C35.61 75.5839 36.7862 76 37.9991 76C39.2119 76 40.3881 75.5839 41.3311 74.8211L43.4563 73.1186C43.8642 72.7923 44.3446 72.569 44.8569 72.4675C45.3693 72.3659 45.8985 72.3891 46.4 72.535L49.0066 73.2949C50.1719 73.6408 51.4206 73.5756 52.5434 73.1102C53.6663 72.6448 54.595 71.8075 55.1738 70.7387L56.4798 68.3601C56.7307 67.9019 57.0883 67.5108 57.5222 67.2199C57.9562 66.9291 58.4538 66.747 58.973 66.689L61.677 66.3922C62.8838 66.2652 64.0104 65.7277 64.8684 64.8697C65.7265 64.0116 66.2639 62.885 66.3909 61.6782L66.6878 58.9743C66.7455 58.4551 66.9275 57.9575 67.2182 57.5235C67.509 57.0895 67.9 56.7319 68.3582 56.4811L70.7375 55.1751C71.8063 54.5961 72.6436 53.6673 73.109 52.5444C73.5744 51.4214 73.6395 50.1726 73.2936 49.0073L72.5332 46.4019C72.3874 45.9001 72.3643 45.3707 72.466 44.8582C72.5676 44.3456 72.791 43.8651 73.1173 43.4569L74.8216 41.3324ZM71.4973 42.1593C70.9626 42.8279 70.5965 43.6152 70.43 44.455C70.2635 45.2947 70.3013 46.1622 70.5404 46.9842L71.3014 49.5897C71.5124 50.3007 71.4725 51.0626 71.1884 51.7477C70.9044 52.4328 70.3935 52.9995 69.7414 53.3526L67.3615 54.6586C66.6102 55.0704 65.9692 55.6572 65.4929 56.3692C65.0165 57.0813 64.7188 57.8977 64.6249 58.7493L64.3281 61.4532C64.2502 62.1895 63.922 62.8768 63.3985 63.4003C62.8749 63.9239 62.1877 64.252 61.4514 64.3299L58.7468 64.6268C57.8954 64.721 57.0791 65.0189 56.3672 65.4954C55.6552 65.9718 55.0686 66.6128 54.6568 67.364L53.3508 69.7432C52.9974 70.395 52.4308 70.9056 51.7459 71.1896C51.061 71.4736 50.2993 71.5137 49.5884 71.3033L46.9824 70.5428C46.1605 70.3033 45.2931 70.2652 44.4534 70.4316C43.6137 70.5981 42.8264 70.9642 42.158 71.4991L40.0328 73.2017C39.4573 73.6674 38.7394 73.9215 37.9991 73.9215C37.2587 73.9215 36.5408 73.6674 35.9653 73.2017L33.8401 71.4991C33.1716 70.9644 32.3842 70.5983 31.5445 70.4317C30.7047 70.2652 29.8372 70.3031 29.0152 70.5422L26.4103 71.3027C25.6993 71.5129 24.9376 71.4727 24.2527 71.1888C23.5677 70.9048 23.001 70.3943 22.6474 69.7426L21.3414 67.3628C20.9296 66.6115 20.3428 65.9705 19.6308 65.4941C18.9187 65.0178 18.1023 64.72 17.2507 64.6262L14.5468 64.3294C13.8105 64.2514 13.1232 63.9233 12.5997 63.3997C12.0761 62.8762 11.748 62.1889 11.6701 61.4527L11.3732 58.7481C11.279 57.8966 10.9811 57.0804 10.5046 56.3685C10.0282 55.6565 9.38724 55.0698 8.63604 54.658L6.25679 53.3521C5.60989 52.9935 5.10354 52.4263 4.82034 51.7431C4.53714 51.0598 4.49378 50.3007 4.69734 49.5897L5.45778 46.9837C5.69707 46.1618 5.7351 45.2944 5.56865 44.4547C5.4022 43.615 5.03617 42.8277 4.50145 42.1593L2.79775 40.0341C2.33221 39.4585 2.07824 38.7406 2.07824 38.0003C2.07824 37.2601 2.33221 36.5422 2.79775 35.9666L4.50026 33.8414C5.03495 33.1728 5.40101 32.3854 5.56756 31.5457C5.7341 30.706 5.69624 29.8385 5.45718 29.0164L4.69734 26.411C4.48639 25.7 4.52627 24.9381 4.8103 24.253C5.09433 23.5679 5.60524 23.0012 6.25739 22.648L8.63723 21.3421C9.38852 20.9303 10.0295 20.3435 10.5059 19.6314C10.9822 18.9194 11.28 18.103 11.3738 17.2514L11.6706 14.5474C11.7491 13.8108 12.078 13.1235 12.6024 12.6002C13.1267 12.077 13.8147 11.7495 14.5515 11.6725L17.2561 11.3757C18.1075 11.2815 18.9238 10.9836 19.6357 10.5071C20.3477 10.0306 20.9343 9.3897 21.3461 8.6385L22.6521 6.25925C23.0105 5.61319 23.5769 5.10733 24.2592 4.82389C24.9415 4.54045 25.6996 4.49609 26.4103 4.69802L29.0163 5.45845C29.8382 5.69784 30.7056 5.73592 31.5453 5.56947C32.385 5.40302 33.1723 5.03693 33.8407 4.50212L35.9659 2.79842C36.5415 2.33279 37.2594 2.07875 37.9997 2.07875C38.74 2.07875 39.4579 2.33279 40.0334 2.79842L42.1586 4.50094C42.8274 5.03532 43.6147 5.40119 44.4544 5.56772C45.2941 5.73425 46.1615 5.69657 46.9836 5.45786L49.589 4.69802C50.3 4.48787 51.0617 4.52813 51.7466 4.81208C52.4315 5.09603 52.9982 5.60646 53.352 6.25807L54.658 8.63791C55.0697 9.3892 55.6565 10.0302 56.3686 10.5066C57.0806 10.9829 57.897 11.2806 58.7486 11.3745L61.4526 11.6713C62.1889 11.7493 62.8761 12.0774 63.3997 12.6009C63.9232 13.1245 64.2513 13.8117 64.3293 14.548L64.6261 17.2526C64.7203 18.104 65.0182 18.9203 65.4947 19.6322C65.9711 20.3442 66.6121 20.9309 67.3633 21.3427L69.7425 22.6486C70.3895 23.0072 70.8959 23.5743 71.1792 24.2576C71.4625 24.9408 71.506 25.6999 71.3026 26.411L70.5422 29.017C70.3029 29.8389 70.2648 30.7063 70.4313 31.546C70.5977 32.3857 70.9638 33.173 71.4985 33.8414L73.201 35.9666C73.6665 36.5422 73.9205 37.2601 73.9205 38.0003C73.9205 38.7406 73.6665 39.4585 73.201 40.0341L71.4973 42.1593Z" fill="#333333"/>
</svg>
