<svg width="79" height="69" viewBox="0 0 79 69" fill="none" xmlns="http://www.w3.org/2000/svg">
<path d="M75.4493 13.2589H67.258C68.5619 11.9836 69.3734 10.281 69.5472 8.45619C69.721 6.63143 69.2457 4.80379 68.2065 3.3008C67.1672 1.79781 65.632 0.717717 63.8759 0.25407C62.1197 -0.209577 60.2575 -0.0264684 58.6229 0.770581L46.3921 6.73209C46.1018 6.12695 45.6489 5.61649 45.0849 5.25903C44.521 4.90157 43.8689 4.71153 43.2031 4.71063H35.7969C35.1308 4.71166 34.4784 4.90195 33.9144 5.25975C33.3504 5.61755 32.8974 6.12842 32.6073 6.73396L20.3734 0.770581C18.7386 -0.028581 16.8754 -0.21322 15.1181 0.249797C13.3607 0.712813 11.8243 1.79318 10.7845 3.29701C9.74465 4.80085 9.26951 6.62972 9.44431 8.45544C9.61911 10.2811 10.4324 11.9842 11.7383 13.2589H3.54698C2.60639 13.2604 1.70478 13.6386 1.03986 14.3105C0.374933 14.9824 0.00097931 15.8931 0 16.8431L0 22.7379C0.000980282 23.6882 0.375188 24.5992 1.04051 25.2712C1.70583 25.9431 2.60792 26.321 3.54883 26.322H5.19672V65.4159C5.19786 66.3661 5.57212 67.2771 6.23741 67.949C6.9027 68.6209 7.80469 68.9988 8.74555 69H70.2582C71.199 68.9988 72.101 68.6209 72.7663 67.949C73.4316 67.2771 73.8058 66.3661 73.807 65.4159V26.322H75.4512C76.3921 26.321 77.2942 25.9431 77.9595 25.2712C78.6248 24.5992 78.999 23.6882 79 22.7379V16.8431C78.999 15.8925 78.6246 14.9811 77.9588 14.3091C77.2931 13.6372 76.3905 13.2594 75.4493 13.2589ZM59.5623 2.73531C60.3042 2.37366 61.1173 2.18554 61.9412 2.18491C62.765 2.18429 63.5784 2.37118 64.3209 2.73171C65.0634 3.09223 65.7158 3.61711 66.2298 4.26734C66.7438 4.91758 67.1061 5.67644 67.2898 6.48753C67.4734 7.29862 67.4738 8.14109 67.2907 8.95231C67.1076 9.76354 66.7459 10.5227 66.2324 11.1733C65.7189 11.8239 65.0668 12.3493 64.3245 12.7104C63.5823 13.0714 62.7691 13.2589 61.9453 13.2589H46.752V8.9798L59.5623 2.73531ZM71.645 51.7139H46.752V41.429H71.645V51.7139ZM7.35132 41.429H32.248V51.7139H7.35132V41.429ZM34.4082 8.29477C34.4087 7.92296 34.5552 7.56651 34.8155 7.3036C35.0758 7.04069 35.4287 6.89278 35.7969 6.89228H43.2031C43.5713 6.89278 43.9242 7.04069 44.1845 7.3036C44.4448 7.56651 44.5913 7.92296 44.5918 8.29477V13.2589H34.4082V8.29477ZM11.5686 7.72193C11.5666 6.78392 11.8009 5.86081 12.2494 5.03945C12.698 4.21809 13.3461 3.52547 14.1327 3.02676C14.9193 2.52804 15.8186 2.23963 16.746 2.18864C17.6734 2.13766 18.5984 2.32578 19.434 2.73531L32.2443 8.9798V13.2589H17.051C15.5975 13.2573 14.204 12.6734 13.1761 11.6354C12.1483 10.5973 11.5702 9.18993 11.5686 7.72193ZM2.16016 22.7379V16.8431C2.16065 16.4713 2.30711 16.1148 2.56743 15.8519C2.82775 15.589 3.18068 15.4411 3.54883 15.4406H32.248V24.1404H3.54698C3.17915 24.1394 2.82669 23.9912 2.56677 23.7284C2.30685 23.4655 2.16064 23.1094 2.16016 22.7379ZM32.2499 26.322V39.2473H7.35502V26.322H32.2499ZM7.35502 65.4159V53.8955H32.248V66.8208H8.7437C8.37512 66.8204 8.02182 66.6721 7.76143 66.4086C7.50103 66.1452 7.35486 65.7881 7.35502 65.4159ZM34.4082 15.4412H44.5918V66.8208H34.4082V15.4412ZM71.645 65.4159C71.6445 65.7877 71.498 66.1441 71.2377 66.407C70.9774 66.6699 70.6245 66.8179 70.2563 66.8184H46.752V53.8955H71.645V65.4159ZM71.645 39.2448H46.752V26.322H71.645V39.2448ZM76.8398 22.7379C76.8394 23.1097 76.6929 23.4661 76.4326 23.729C76.1722 23.992 75.8193 24.1399 75.4512 24.1404H46.752V15.4406H75.4512C75.8193 15.4411 76.1722 15.589 76.4326 15.8519C76.6929 16.1148 76.8394 16.4713 76.8398 16.8431V22.7379Z" fill="#333333"/>
</svg>
